# xmcd CD database file
#
# Track frame offsets:
#	150
#	16928
#	31623
#	50677
#	67328
#	81814
#	99672
#	115525
#	128663
#	139924
#	159372
#
# Disc length: 2291 seconds
#
# Revision: 0
# Processed by: cddbd v1.5.2PL0 Copyright (c) Steve Scherf et al.
# Submitted via: CDex 1.51
#
DISCID=8908f10b
DTITLE=Diego Czainik - Cherry Red
DYEAR=2010
DGENRE=Blues
TTITLE0=Black Rat Swing
TTITLE1=Cherry Red
TTITLE2=SHake, Rattle and Roll
TTITLE3=I Believe I'll Dust My Broom
TTITLE4=Drowning In My Own Tears
TTITLE5=Got My Mojo Working
TTITLE6=Kansas City
TTITLE7=It Hurts Me Too
TTITLE8=Roll'em Pete
TTITLE9=Nobody Knows You When You're Down And Out
TTITLE10=Matchbox
EXTD=YEAR: 2010
EXTT0=
EXTT1=
EXTT2=
EXTT3=
EXTT4=
EXTT5=
EXTT6=
EXTT7=
EXTT8=
EXTT9=
EXTT10=
PLAYORDER=
